<?xml version="1.0" standalone="no"?>
<!DOCTYPE svg PUBLIC "-//W3C//DTD SVG 20010904//EN"
 "http://www.w3.org/TR/2001/REC-SVG-20010904/DTD/svg10.dtd">
<svg version="1.0" xmlns="http://www.w3.org/2000/svg"
 width="1280.000000pt" height="1280.000000pt" viewBox="0 0 1280.000000 1280.000000"
 preserveAspectRatio="xMidYMid meet">
<g transform="translate(0.000000,1280.000000) scale(0.100000,-0.100000)"
fill="#000000" stroke="none">
<path d="M8645 11969 c-983 -68 -1822 -387 -2489 -945 -438 -367 -706 -781
-810 -1254 -155 -704 95 -1430 761 -2211 53 -63 455 -474 893 -914 543 -546
827 -838 892 -920 270 -336 457 -704 528 -1040 43 -199 38 -527 -10 -745 -114
-514 -479 -998 -1040 -1379 -525 -357 -1093 -544 -1795 -591 -783 -52 -1376
96 -1779 444 -136 117 -257 311 -295 475 -41 174 -36 399 13 593 180 705 965
1134 2291 1252 209 19 562 36 752 36 162 0 162 0 243 105 l43 56 -7 92 c-10
139 -12 145 -92 200 l-69 49 -535 -5 c-540 -5 -658 -11 -1030 -48 -970 -96
-1742 -331 -2230 -679 -354 -252 -557 -534 -649 -900 -74 -292 -64 -583 29
-862 186 -555 771 -1000 1580 -1201 1081 -269 2410 -158 3468 290 586 248
1130 620 1532 1047 509 543 810 1258 775 1846 -36 613 -290 1193 -754 1720
-36 41 -327 341 -646 665 -1025 1041 -1105 1125 -1293 1362 -247 311 -407 633
-457 918 -23 130 -24 367 -2 490 76 424 377 817 855 1118 294 185 608 297 987
354 175 26 644 26 800 0 423 -71 715 -282 781 -564 24 -104 15 -303 -19 -406
-132 -404 -622 -678 -1367 -762 -74 -9 -232 -18 -350 -22 -126 -3 -224 -10
-237 -17 -12 -6 -42 -37 -67 -70 l-46 -58 0 -107 c0 -120 -1 -119 100 -189 40
-28 57 -33 165 -44 187 -19 745 -16 930 6 583 68 1031 215 1405 460 440 289
660 646 660 1073 0 318 -140 617 -384 822 -314 264 -737 414 -1299 460 -143
12 -563 12 -732 0z"/>
</g>
</svg>
